<svg xmlns="http://www.w3.org/2000/svg" width="946" height="244"><path fill="#F03838" fill-opacity=".902" d="M752.662 114.632c5.482 5.532 5.08 14.844 5.046 22.129-.014 3.394.078 6.866-.461 10.226l-1.78-4.794-.282 2.043c-3.501-5.078-1.725-18.457-4.927-25.258l2.404-4.346z"/><defs><linearGradient id="a" gradientUnits="userSpaceOnUse" x1="210.212" y1="45.959" x2="212.869" y2="50.183"><stop offset="0" stop-color="#F03838" stop-opacity=".969"/><stop offset="1" stop-color="#F03838"/></linearGradient></defs><path fill="url(#a)" transform="scale(3.69394)" d="M209.438 44.006c.54.697.683 1.201.764 2.072.347-.12.486-.307.69-.59.174.617.337 1.233.474 1.86.489.207.541.126 1.014-.057l.094.168-.233.567c.273.46.336.567.885.703.841.208 2.501-.22 3.148.273l-.096.398-.08.016c-2.146.384-6.405.86-8.28-.435-.858-1.677 1.222-3.276 1.61-4.931l.01-.044z"/><path fill="#F03838" fill-opacity=".961" d="M722.07 94.038c3.01 2.927 2.655 5.656 2.714 9.735.074 5.286-1.078 14.594.902 19.208.236.426.428.862.616 1.312 1.7 4.049-.343 13.617-.424 18.4-.115 6.656 3.31 34.112 2.66 36.45l-.023 3.312c.602.507 1.249 1.174 2.006 1.41-.321 1.476-.658 1.66-1.729 2.647a3.462 3.462 0 0 1-.225-.121c-2.246-1.361-3.517-6.758-4.093-9.242-4.702-20.284-2.782-41.718-2.194-62.364.184-6.397 1.36-14.55-.21-20.747z"/><path fill="#F03838" fill-opacity=".976" d="M745.057 122.776c.487.595 1.81 1.842 2.035 2.493 1.662 4.818.499 20.906 1.382 27.805.905-2.663.554-7.367-.518-9.963.248-.241.484-.495.687-.777 1.563-2.192 1.171-3.178.728-5.71 3.166 5.842-1.496 30.423 1.61 33.35l-.949-.419 1.356-.19c1.64-3.913.669-14.576 3.834-16.925 2.472 4.44 2.475 10.052 1.903 14.981-1.367 11.783-8.116 25.024-17.465 32.441 1.418-1.374 2.386-3.126 3.092-4.957 3-7.802 5.456-65.043 2.305-72.13z"/><path fill="#F03838" fill-opacity=".949" d="M364.413 133.2c2.724-.475 5.461-1.588 7.962-.331l.355.882c2.77 6.737.195 15.516-2.479 21.947-5.122 12.323-17.165 29.91-29.928 35.097q-.411.167-.83.314c1.053-5.863 7.681-10.785 11.604-15.167 3.668-4.098 11.13-12.15 10.822-17.718-1.776-1.671-2.418-1.75-4.832-2.235 2.36-1.674 3.517-3.788 4.75-6.347 2.199-4.562 4.313-11.457 2.576-16.441z"/><path fill="#F03838" d="M100.545 111.124c.23-.05.46-.095.694-.127 2.63-.355 5.375-.174 7.511 1.495.175.624.689 1.82.451 2.387-3.313 7.899-23.47 13.993-31.236 17.163-1.1.175-2.471-.03-3.597-.069-2.482-1.346-4.067-2.288-5.47-4.859.038-1.24-.126-2.249.597-3.303 5.594-8.154 21.876-10.998 31.05-12.687zm-2.675 55.3c1.507-.353 2.327-.425 3.79.187-.879 1.944-3.756 2.901-5.608 3.854-10.134 5.218-12.51 13.348-19.787 21.228-4.152 4.495-8.116 5.858-14.113 6.094-2.053-1.753-3.911-4.331-4.6-6.957-.528-2.014-.201-3.923.858-5.712 6.022-10.168 28.622-16.001 39.46-18.694z"/><path fill="#F03838" fill-opacity=".988" d="M745.057 122.776c3.919-8.775-.846-34.079-.902-44.759-.014-2.747.048-5.701 2.14-7.766 1.817-1.792 3.741-3.016 6.367-3.015 1.423.764 2.376 1.089 3.292 2.453 5.042 7.49 3.638 23.471 1.887 32.109-.694 3.42-1.503 4.537-4.355 6.445l-.824 6.39-2.404 4.345c.65 5.236 1.17 12.683-.887 17.645.443 2.533.835 3.519-.728 5.711-.203.282-.44.536-.687.777 1.072 2.596 1.423 7.3.518 9.963-.883-6.899.28-22.987-1.382-27.805-.225-.651-1.548-1.898-2.035-2.493zm2.9 20.335c.247-.241.483-.495.686-.777 1.563-2.192 1.171-3.178.728-5.71 2.058-4.963 1.537-12.41.887-17.646l2.404-4.346.824-6.39-1.012-1.996c-.997.171-1.847.282-2.852.143-3.343 9.8 1.61 27.842-1.245 35.687-.129.353-.258.695-.42 1.035z"/><path fill="#F03838" fill-opacity=".925" d="M747.956 143.111c.163-.34.292-.682.421-1.035 2.856-7.845-2.098-25.886 1.245-35.687 1.005.14 1.855.028 2.852-.143l1.012 1.997-.824 6.39-2.404 4.345c.65 5.236 1.17 12.683-.887 17.645.443 2.533.835 3.519-.728 5.711-.203.282-.44.536-.687.777z"/><path fill="#F03838" d="M97.08 139.812c1.759-.009 2.21.36 3.674 1.237l-.078 1.85c-3.139 5.425-11.898 10.032-17.276 13.126-7.188 4.134-19.99 12.96-28.62 10.634-4.944-3.874-6.274-7.875-8.29-13.563 9.667-8.031 37.643-12.456 50.59-13.284z"/><defs><linearGradient id="b" gradientUnits="userSpaceOnUse" x1="195.897" y1="27.545" x2="197.103" y2="27.455"><stop offset="0" stop-color="#F20079" stop-opacity=".925"/><stop offset="1" stop-color="#F03838" stop-opacity=".976"/></linearGradient></defs><path fill="url(#b)" transform="scale(3.69394)" d="M195.843 20.378c.706.33 1.525.707 2.011 1.343.402.525.426.93.336 1.553.421.492.49.695.524 1.34.164 3.122-.332 6.388-.235 9.553.134 4.322 1.046 8.682.702 13.01-.054.67-.131 1.07-.657 1.524l-.072.06-.022.589-.668.425c-.205-.064-.38-.245-.543-.382l.006-.897c.176-.633-.751-8.065-.72-9.867.022-1.295.575-3.885.115-4.981a3.527 3.527 0 0 0-.167-.355c-.536-1.25-.224-3.77-.244-5.2-.016-1.105.08-1.843-.735-2.636.593-1.397.552-3.6.369-5.08zm2.347 2.896.064.565-.274-.487c-.605 3.982-.535 8.38-.399 12.406.087 2.604 1.891 11.14.871 13.003l.072-.06c.526-.454.603-.853.657-1.525.344-4.327-.568-8.687-.702-13.009-.097-3.165.399-6.431.235-9.553-.034-.645-.103-.848-.524-1.34z"/><path fill="#F03838" d="M725.686 122.98c1.477-3.829 1.47-8.14 1.717-12.198-1.02 4.06 2.907 60.408 3.576 68.767-.894-.305-1.51-.685-2.442-.407.65-2.337-2.774-29.793-2.66-36.448.082-4.784 2.125-14.352.425-18.401-.188-.45-.38-.886-.616-1.312z"/><path fill="#F03838" fill-opacity=".827" d="M732.102 85.973c1.555 1.818 1.81 2.566 1.936 4.95.605 11.531-1.227 23.598-.868 35.288.495 15.966 3.863 32.07 2.593 48.055-.2 2.481-.484 3.957-2.427 5.631q-.133.113-.266.222c3.768-6.88-2.896-38.412-3.218-48.03-.502-14.87-.76-31.118 1.474-45.828l1.012 1.8-.236-2.088z"/><path fill="#F03838" d="M275.807 205.082q1.55-.267 3.07-.675c22.792-6.11 49.949-25.525 68.596-40.06 2.433-1.896 7.708-4.89 9.173-7.495a8.75 8.75 0 0 0 .44-.863c2.415.485 3.057.564 4.833 2.235.308 5.569-7.154 13.62-10.822 17.718-3.923 4.382-10.55 9.304-11.605 15.167l-.54 1.194c-12.789 11.206-36.23 16.232-52.737 17.865-3.248-2.473-6.58-3.743-10.408-5.086zm97.033-84.756c22.596-2.267 47.981-6.908 70.496-4.162 1.115 1.352 1.027 2.064.853 3.826-.218 2.201-1.603 4.196-3.295 5.557-14.772 11.882-62.088 4.392-67.34 7.63l-.137.083c-.244.15-.47.31-.687.49l-.355-.881c-2.5-1.257-5.238-.144-7.962.332l-1.116-.802c-19.02 1.499-36.69 2.33-53.344 12.669-8.836 5.485-17.16 11.202-26.967 14.88.003-.143.006-.183-.008-.34-.365-4.138-6.08-8.774-9.066-11.218 4.598-2.027 8.759-5.196 13.445-7.287 15.237-6.8 31.761-11.51 48.01-15.235 9.11-2.089 20.323-1.675 28.85-4.742 2.965-1.354 5.306.97 8.623-.8z"/><path fill="#F03838" d="M333.146 99.05c17.137-5.062 32.09-14.697 45.874-25.793l-.062-1.32c-.045-.032-.085-.064-.126-.095-2.955-2.119-8.53-.503-11.85.104-11.723 2.144-22.533 5.007-33.41 9.92-10.29 4.647-19.79 11.523-31.18 13.352-3.195.512-6.128.526-8.848-1.47-1.01-.74-1.802-2.58-1.986-3.798-.436-2.882.067-5.314 1.847-7.673 8.48-11.24 42.13-16.779 56.134-18.787 12.012-1.722 37.501-1.742 47.367 5.792 1.604 1.224 2.723 2.85 2.974 4.856.303 2.414-1.1 4.732-2.556 6.555-5.423 6.796-23.21 19.104-31.814 20.08.452 6.013 5.742 11.786 6.315 18.552l1.015 1.001c-3.317 1.77-5.658-.554-8.623.8l.68-1.852c-2.482-6.003-4.842-10.234-10.424-13.853-9.735.123-13.434-.777-21.327-6.37zm31.752 20.224-.681 1.852c2.965-1.354 5.306.97 8.623-.8l-1.015-1.001c-.573-6.766-5.863-12.54-6.315-18.551l-1.419-1.366-1.474.413c-.043 4.862.62 12.125 3.56 16.197-.167 1.404-.45 2.11-1.28 3.256z"/><path fill="#F03838" fill-opacity=".969" d="M364.898 119.274c.828-1.146 1.112-1.852 1.279-3.256-2.94-4.072-3.603-11.335-3.56-16.197l1.474-.413 1.42 1.366c.451 6.012 5.741 11.785 6.314 18.55l1.015 1.002c-3.317 1.77-5.658-.554-8.623.8l.68-1.852z"/><path fill="#F03838" d="M533.338 107.719c-1.799-.785-3.616-1.582-5.33-2.537-2.32-1.29-5.43-4.446-6.128-7.042-.506-1.88-.366-3.447.643-5.142 5.932-9.946 20.545-3.387 29.68-5.204 8.485-1.687 17.044-5.347 25.44-7.65 5.981-1.639 37.143-7.851 41.676-5.27l-.152 1.684c-1.6 2.246-3.04 3.87-5.286 5.507-5.452 2.309-12.918 3.05-18.81 4.414-9.33 2.16-18.432 4.694-27.567 7.565 3.055 5.578 2.622 13 .883 18.99q-.366 1.26-.88 2.466c15.618-.104 48.59-14.013 61.826-8.225 1.969.861 2.183 1.372 2.907 3.257-3.583 8.59-34.054 7.759-42.237 12.96-1.056.672-1.972 1.35-2.548 2.494-1.766 3.523-1.991 8.056-3.543 11.79-1.928 4.636-5.63 8.319-6.682 13.33.21 1.184.499 2.48 1.234 3.455 4.717 6.27 18.222 7.757 25.543 8.716 16.974 2.224 39.544.833 53.607-10.04 3.923-3.035 7.945-8.146 8.607-13.201 2.275 6.14 4.968 20.236 3.354 26.461-1.7 6.544-7.314 13.588-13.136 16.975-16.05 9.341-35.946-3.622-51.663-7.78-7.314-1.934-15.057-1.995-22.352-3.938-25.744-6.852-3.768-27.235-12.157-41.636-.045.243-19.77 34.323-21.466 36.8q-3.417 5.005-7.956 9.017c-10.13 9.047-23.671 15.213-37.475 14.37-2.79-.17-4.363-.728-6.214-2.808-.022-1.908-.136-2.53 1.312-3.956 2.098-2.067 6.017-3.737 8.625-5.105 13.804-7.246 31.413-12.773 40.763-25.921 1.954-2.75 6.11-8.464 5.522-11.972-6.25-3.736-24.018 8.775-33.737 6.65-2.039-.444-3.849-1.54-4.968-3.325-1.071-1.706-1.843-4.922-1.367-6.938 2.157-9.105 32.477-9.915 40.63-14.953 3.143-1.943 5.23-4.773 6.062-8.384 1.148-4.995-.695-11.118-3.354-15.344a8.777 8.777 0 0 1-.204.306c-4.285 6.012-16.153 8.058-23.102 9.164zm34.17 7.78q.513-1.206.879-2.466c1.74-5.989 2.172-13.41-.883-18.99l-.957-1.279c-.717.387-1.729.69-1.98 1.484-.037.122-.07.245-.107.367-.89 3.068 2.054 7.098 1.256 10.396a9.539 9.539 0 0 1-.27.955c-.646-1.57-1.237-3.517-2.394-4.77-1.392 3.918-1.61 10.706-.66 14.75l.646.253.908-3.136 1.031 3.119c.846-.094 1.873-.087 2.53-.682z"/><path fill="#F03838" fill-opacity=".973" d="M567.507 115.5c-.657.595-1.684.588-2.53.682l-1.03-3.12-.91 3.137-.646-.253c-.95-4.044-.731-10.832.661-14.75 1.157 1.253 1.748 3.2 2.394 4.77.111-.317.192-.629.27-.955.798-3.298-2.146-7.328-1.256-10.396.037-.122.07-.245.107-.367.251-.793 1.263-1.097 1.98-1.484l.957 1.28c3.055 5.578 2.622 13 .883 18.99q-.366 1.26-.88 2.466z"/><path fill="#F03838" d="M117.962 85.428c3.817-.757 8.517-1.31 11.987-3.125 11.705-6.125 7.88-24.182 17.335-29.758 3.421-2.018 10.152-1.952 13.918-1.009 3.076.771 5.77 2.485 7.4 5.26 1.546 2.628 1.685 5.802.913 8.7-2.104 7.896-8.563 12.078-15.184 15.893q2.655-.07 5.31-.075c6.426-.01 16.506-.031 21.405 4.927.97.981.728 1.614.72 2.915-.615.688-1.313 1.312-2.117 1.771-7.347 4.203-18.45 1.4-26.113-.659-2.377 5.958-5.419 11.094-8.968 16.395 5.72-1.33 13.316-3.708 19.028-1.571 2.251.842 4.223 2.481 5.195 4.71 3.87 8.876-8.611 16.611-11.315 23.672 1.942 1.736 7.968 2.014 10.643 2.538 18.437 3.613 31.953 4.937 50.6 5.743 5.97.257 12.087-3.144 17.527-.37-1.425 2.433-3.467 4.414-4.789 6.847-3.05 5.618-5.033 12.542-9.025 17.532-2.448 3.06-5.72 5.329-9.678 5.732-7.784.795-15.367-4.94-21.054-9.62-1.73 2.71-3.584 5.181-5.651 7.642l-2.606 3.037c-2.876 11.747-30.53 17.517-39.98 22.45-5.968 3.115-11.49 8.174-17.092 12.01l-9.385-5.824c3.26-6.687 8.441-17.994 7.323-25.478-.348-2.33-1.51-4.397-3.433-5.788-3.986-2.882-9.797-1.177-14.278-.416 12.046-11.447 26.074-19.36 37.422-31.755-5.097-.139-10.253-.895-15.326-1.424-8.829 7.374-14.61 16.3-25.564 21.085 3.265-6.903 8.727-13.09 13.221-19.254 11.293-15.489 17.973-30.19 22.887-48.725-6.038.986-12.16.664-18.144 2.116-6.579 1.596-5.424 6.729-8.457 11.535-1.273 2.017-2.387 2.17-4.55 2.669-5.092-.79-9.17-4.207-12.397-7.991-14.462 10.216-30.762 12.516-47.964 12.509 8.287-5.058 17.399-9.33 26.505-12.668 4.832-1.771 13.458-3.346 17.52-6.033.596-.394 1.32-1.498 1.82-2.065 1.59-5.994-5.472-13.002-7.383-18.472-.845-2.421-.313-3.705.754-5.86 1.464-1.099 2.965-2.124 4.72-2.693 3.714-1.205 7.287-.794 10.74.996 9.157 4.748 12.648 12.727 15.56 21.949zm35.167 56.576c-5.505 4.896-17.67 11.285-20.012 18.168l.233 2.157c3.22 2.066 6.12 1.393 9.743.602 4.036-.88 7.953-2.265 11.847-3.628 4.509-1.649 17.202-3.617 19.929-5.732.277-.215.54-.427.792-.67-1.005-3.142-4.258-4.504-7.08-5.956-4.86-2.5-9.86-5.033-15.452-4.941zm-13.685 42.239c12.093-.935 26.018-3.542 34.274-13.275q.35-.413.664-.853l4.171-7.984c-12.1.716-24.488 2.502-33.027 12.086-2.56 2.873-4.316 6.625-6.082 10.026zm2.045-70.436c-4.474 3.654-6.838 9.893-9.887 14.746 4.614.566 9.504.86 14.002 2.027 3.282-1.73 6.943-6.202 8.043-9.735.434-1.393.12-2.883-.254-4.254-1.536-1.757-2.45-3.081-4.987-3.208-2.255-.114-4.667.218-6.917.424zm37.064 48.324-4.17 7.984.12.095c2.336 1.91 1.07 5.03 3.634 6.048 2.036-1.481 3.547-3.345 5.15-5.26l.156 1.557 2.606-3.037c-1.053-1.761 1.771-4.502 2.18-6.776l-1.03-.457c-1.911.976-3.503 3.537-4.848 5.201-1.75-1.153-.562-3.614-1.351-5.602l-2.447.247z"/><path fill="#F03838" fill-opacity=".973" d="m178.553 162.131 2.447-.247c.79 1.988-.398 4.449 1.351 5.602 1.345-1.664 2.937-4.225 4.848-5.2l1.03.456c-.409 2.274-3.233 5.015-2.18 6.776l-2.606 3.037-.156-1.557c-1.603 1.915-3.114 3.779-5.15 5.26-2.564-1.017-1.298-4.138-3.634-6.048l-.12-.095 4.17-7.984z"/><path fill="#F03838" fill-opacity=".988" d="M805.25 51.355c5.226.268 10.956.672 15.577 3.364 3.24 1.889 6.04 4.527 6.97 8.277.998 4.012-.052 10.139-2.172 13.67 8.308-.136 20.029-1.628 26.966 3.782-2.745 7.368-17.498 10.64-23.301 16.673-4.46 4.635-7.713 9.226-13.424 12.527 9.74-1.895 20.634-4.702 30.56-4.634 4.17.028 9.796.302 12.895 3.5.953.982 1.581 2.58 1.507 3.971-.354 6.658-3.254 13.033-8.063 17.472 16.32.708 32.466 1.276 48.804 1.167.41 1.347.122 2.874-.273 4.195-1.57 5.22-6.687 13.098-11.636 15.699-10.536 5.535-27.675-1.994-38.325-5.267-2.94 3.866.635 8.195-3.9 12.146.339 4.116-3.008 4.859-2.498 9.1 4.728-.698 10.343-.832 14.421 2.074.776 1.89.628 2.076-.103 3.993-4.09 3.52-14.432 1.459-16.472 4.643-1.167 1.826-1.606 5.479-2.855 7.752-10.539 19.206-18.82 23.435-40.349 24.987 8.57-3.743 16.065-11.245 19.497-20.054 1.056-2.716 2.216-6.848 1.005-9.651-7.2.45-14.366.953-21.532 1.74l.354-1.47c-2.39-1.824-8.522-.24-11.628-1.01-2.028-.502-2.261-.896-3.27-2.595l.861-2.094-.347-.623c-1.747.677-1.94.975-3.746.214-.506-2.32-1.108-4.592-1.75-6.875-.754 1.049-1.268 1.74-2.55 2.18-.299-3.215-.827-5.076-2.822-7.652 1.903-2.72 3.702-5.255 4.821-8.403l-.994-.833c-6.678.834-14.635-2.818-20.571-1.352-.57.141-1.13.276-1.685.472-3.165 2.35-2.194 13.012-3.834 16.925l-1.356.19.95.42c-3.107-2.928 1.555-27.51-1.61-33.352 2.057-4.962 1.536-12.41.886-17.645 3.202 6.801 1.426 20.18 4.927 25.258l.281-2.043 1.78 4.794c1.053.335 27.037-6.441 31.118-7.29 4.241-2.437 23.738-32.864 28.307-39.306 2.807-3.958 6.749-8.355 5.87-13.518-.174.161-.355.32-.543.464-8.766 6.677-23.328 15.995-34.39 16.944-4.127.354-8.889-.596-13.01-1.09-4.053 3.316-10.458 5.405-15.408 6.985 1.052-1.17 2.013-2.513 2.63-3.965 3.08-7.27 8.632-23.397 5.54-31.077 2.734.734 5.575 1.436 8.183 2.545 3.46 1.47 6.08 3.548 7.51 7.102 1.89 4.696-1.064 9.242-2.922 13.59l.561 1.145a10.62 10.62 0 0 0 1.555 0c3.42-.284 6.31-3.48 8.356-5.966 8.278-10.058 9.238-20.513 12.279-32.52.805-3.18 2.685-6.36 2.367-9.675zm-11.186 95.63-1.633-.692c-6.918 4.708-6.146 16.99-13.409 21.735.643 2.283 1.245 4.555 1.751 6.875 1.807.76 1.999.463 3.746-.214l.347.623q.447.058.894.09c4.699.326 9.542-.563 13.18-3.749 2.25-1.97 5.131-5.92 5.32-8.975 2.659-2.039 3.908-4.327 4.51-7.553 1.536-2.28 1.869-2.641 1.78-5.369 1.071-1.119 1.478-2.132 1.954-3.578l-1.141-1.318c-5.26-.671-11.898 1.648-17.299 2.126zm29.238-3.856c.76 4.136-2.45 12.974-4.917 16.335-.447.61-1.071 1.045-1.747 1.368-.702 4.153-3.321 6.167-5.238 9.839 4.034.27 8.898.658 12.685-1.026 4.783-2.128 9.515-7.04 11.366-11.951 1.367-3.63 3.358-10.63 1.718-14.239-4.337-.756-9.438-.29-13.867-.326zm13.047-31.85-.011.173c-.396 5.345-5.852 9.792-6.225 14.937-.088 1.221.322 1.635.946 2.632 2.504 1.185 5.031.594 7.657.209 3.694-1.106 5.623-2.49 7.477-5.963 1.26-2.357 1.991-5.057 1.182-7.703q-.18-.611-.48-1.174t-.706-1.054q-.402-.492-.901-.892-.495-.401-1.06-.695c-2.438-1.267-5.271-1.023-7.88-.47zm-14.81 6.463c-3.915 2.175-8.093 4.002-12.514 4.873-.466 3.647-3.266 6.257-2.394 9.716l1.393.802c5.474.06 8.418.256 12.5-3.738 2.855-2.795 4.204-5.62 4.843-9.53l-.662-1.689-3.165-.434zm-10.989 32.014c.089 2.728-.244 3.088-1.78 5.37 2.43 1.477 5.496 5.147 7.868 5.706.676-.323 1.3-.759 1.747-1.368 2.468-3.36 5.678-12.199 4.917-16.335-1.463-.149-2.161-.458-3.373.532-2.833 2.318-4.318 6.965-7.657 9.464-.599-1.103-1.256-2.203-1.722-3.369zm-1.78 5.37c-.602 3.225-1.851 5.513-4.51 7.552l2.681.47c1.692 2.814.033 7.169 2.353 8.986.743-.353 1.744-.68 2.106-1.463 1.917-3.672 4.536-5.686 5.238-9.84-2.372-.558-5.438-4.228-7.868-5.706zm34.39-1.692c.355 4.366-4.16 11.03-3.476 13.126l2.457 1.48-1.8-.077c1.652-.147 3.2-.031 4.596-.967-.51-4.24 2.837-4.983 2.497-9.1.056-1.627.34-3.361-.65-4.758l-3.624.296zm0 0 3.624-.296c.99 1.397.706 3.131.65 4.759 4.536-3.95.96-8.28 3.901-12.146l-2.815-1.317c-2.77 2.113-1.078 5.568-5.36 9z"/><path fill="#F03838" fill-opacity=".953" d="M843.16 153.434c4.282-3.432 2.59-6.887 5.36-9l2.815 1.317c-2.94 3.866.635 8.195-3.9 12.146.055-1.628.339-3.362-.651-4.76l-3.624.297z"/><path fill="#F03838" fill-opacity=".929" d="m843.16 153.434 3.624-.296c.99 1.397.706 3.131.65 4.759.34 4.116-3.007 4.859-2.497 9.1-1.396.935-2.944.82-4.595.966l1.799.078-2.457-1.481c-.683-2.096 3.83-8.76 3.476-13.126z"/><path fill="#F03838" fill-opacity=".965" d="M808.77 155.125c2.43 1.478 5.496 5.148 7.868 5.707-.702 4.153-3.321 6.167-5.238 9.839-.362.783-1.363 1.11-2.106 1.463-2.32-1.817-.661-6.172-2.353-8.985l-2.682-.47c2.66-2.04 3.909-4.328 4.51-7.554z"/><path fill="#F03838" fill-opacity=".953" d="M810.55 149.756c.466 1.166 1.123 2.266 1.722 3.369 3.339-2.499 4.824-7.146 7.657-9.464 1.212-.99 1.91-.68 3.373-.532.76 4.136-2.45 12.974-4.917 16.335-.447.61-1.071 1.045-1.747 1.368-2.372-.559-5.438-4.229-7.868-5.707 1.536-2.28 1.869-2.641 1.78-5.369z"/><path fill="#F03838" fill-opacity=".925" d="M779.022 168.028c7.263-4.746 6.49-17.027 13.41-21.735l1.632.693c-.96 8.026-10.288 21.892-9.545 27.703-1.747.677-1.94.975-3.746.214-.506-2.32-1.108-4.592-1.75-6.875z"/></svg>