<?xml version="1.0" encoding="utf-8" ?>
<svg xmlns="http://www.w3.org/2000/svg" xmlns:xlink="http://www.w3.org/1999/xlink" width="946" height="244">
	<path fill="#F03838" fill-opacity="0.90196079" transform="scale(3.69394 3.69394)" d="M203.756 31.0325C205.24 32.53 205.131 35.0509 205.122 37.023C205.118 37.942 205.143 38.8817 204.997 39.7913L204.515 38.4935L204.439 39.0466C203.491 37.6721 203.972 34.0502 203.105 32.2091L203.756 31.0325Z"/>
	<defs>
		<linearGradient id="gradient_0" gradientUnits="userSpaceOnUse" x1="210.21242" y1="45.959156" x2="212.86908" y2="50.183029">
			<stop offset="0" stop-color="#F03838" stop-opacity="0.96862745"/>
			<stop offset="1" stop-color="#F03838"/>
		</linearGradient>
	</defs>
	<path fill="url(#gradient_0)" transform="scale(3.69394 3.69394)" d="M209.438 44.006C209.978 44.7034 210.121 45.2072 210.202 46.0775C210.549 45.9586 210.688 45.7714 210.892 45.4874C211.066 46.1055 211.229 46.7205 211.366 47.3485C211.855 47.5546 211.907 47.474 212.38 47.2908L212.474 47.4593L212.241 48.0263C212.514 48.4863 212.577 48.5928 213.126 48.7288C213.967 48.9374 215.627 48.5084 216.274 49.0021L216.178 49.4002Q216.138 49.4085 216.098 49.4156C213.952 49.8004 209.693 50.2767 207.818 48.9808C206.96 47.3037 209.04 45.7053 209.428 44.0499L209.438 44.006Z"/>
	<path fill="#F03838" fill-opacity="0.96078432" transform="scale(3.69394 3.69394)" d="M195.474 25.4574C196.289 26.2497 196.193 26.9884 196.209 28.0929C196.229 29.5238 195.917 32.0436 196.453 33.2926C196.517 33.4079 196.569 33.5259 196.62 33.6478C197.08 34.7439 196.527 37.3342 196.505 38.6292C196.474 40.4308 197.401 47.8635 197.225 48.4963L197.219 49.393C197.382 49.5303 197.557 49.7109 197.762 49.7746C197.675 50.1744 197.584 50.2244 197.294 50.4914C197.273 50.4809 197.253 50.4705 197.233 50.4586C196.625 50.0901 196.281 48.6292 196.125 47.9566C194.852 42.4654 195.372 36.663 195.531 31.074C195.581 29.342 195.899 27.1348 195.474 25.4574Z"/>
	<path fill="#F03838" fill-opacity="0.97647059" transform="scale(3.69394 3.69394)" d="M201.697 33.2371C201.829 33.3981 202.187 33.7358 202.248 33.9119C202.698 35.2162 202.383 39.5717 202.622 41.4392C202.867 40.7182 202.772 39.445 202.482 38.7422C202.549 38.6768 202.613 38.608 202.668 38.5318C203.091 37.9383 202.985 37.6713 202.865 36.9858C203.722 38.5674 202.46 45.2219 203.301 46.0143L203.044 45.9009L203.411 45.8495C203.855 44.7901 203.592 41.9036 204.449 41.2675C205.118 42.4698 205.119 43.9889 204.964 45.3232C204.594 48.5131 202.767 52.0974 200.236 54.1054C200.62 53.7333 200.882 53.2592 201.073 52.7635C201.885 50.6513 202.55 35.1554 201.697 33.2371Z"/>
	<path fill="#F03838" fill-opacity="0.94901961" transform="scale(3.69394 3.69394)" d="M98.6516 36.0593C99.3889 35.9304 100.13 35.6291 100.807 35.9694L100.903 36.2082C101.653 38.0321 100.956 40.4087 100.232 42.1497C98.8455 45.4856 95.5853 50.2464 92.13 51.6508Q92.0187 51.6961 91.9052 51.7358C92.1905 50.1487 93.9848 48.8162 95.0467 47.6299C96.0398 46.5205 98.0597 44.3409 97.9763 42.8335C97.4955 42.3809 97.3217 42.3596 96.6682 42.2283C97.307 41.7752 97.6203 41.2028 97.9542 40.5101C98.5495 39.2752 99.1218 37.4086 98.6516 36.0593Z"/>
	<path fill="#F03838" transform="scale(3.69394 3.69394)" d="M27.2189 30.0828C27.2812 30.0692 27.3436 30.057 27.4069 30.0485C28.1188 29.9523 28.8618 30.0013 29.4401 30.453C29.4874 30.622 29.6265 30.946 29.5622 31.0994C28.6652 33.2376 23.2088 34.8873 21.1062 35.7455C20.8082 35.7929 20.4372 35.7374 20.1324 35.727C19.4606 35.3624 19.0314 35.1074 18.6514 34.4115C18.6618 34.0758 18.6176 33.8027 18.8133 33.5174C20.3277 31.3099 24.7354 30.54 27.2189 30.0828Z"/>
	<path fill="#F03838" transform="scale(3.69394 3.69394)" d="M26.4948 45.0533C26.9028 44.9576 27.1248 44.9383 27.5207 45.1038C27.2829 45.6301 26.5039 45.8892 26.0027 46.1473C23.2592 47.5599 22.6159 49.7608 20.6459 51.8939C19.5221 53.1107 18.4489 53.4798 16.8253 53.5437C16.2695 53.0692 15.7666 52.3711 15.5802 51.6603C15.4372 51.1151 15.5257 50.5982 15.8125 50.1139C17.4426 47.3614 23.5607 45.7822 26.4948 45.0533Z"/>
	<path fill="#F03838" fill-opacity="0.98823529" transform="scale(3.69394 3.69394)" d="M201.697 33.2371C202.758 30.8615 201.468 24.0115 201.453 21.1203C201.449 20.3765 201.466 19.5769 202.032 19.0178C202.524 18.5327 203.045 18.2013 203.756 18.2018C204.141 18.4084 204.399 18.4965 204.647 18.8658C206.012 20.8933 205.632 25.2197 205.158 27.558C204.97 28.4842 204.751 28.7864 203.979 29.3028L203.756 31.0325L203.105 32.2091C203.281 33.6264 203.422 35.6425 202.865 36.9858C202.985 37.6713 203.091 37.9383 202.668 38.5318C202.613 38.608 202.549 38.6768 202.482 38.7422C202.772 39.445 202.867 40.7182 202.622 41.4392C202.383 39.5717 202.698 35.2162 202.248 33.9119C202.187 33.7358 201.829 33.3981 201.697 33.2371ZM202.482 38.7422C202.549 38.6768 202.613 38.608 202.668 38.5318C203.091 37.9383 202.985 37.6713 202.865 36.9858C203.422 35.6425 203.281 33.6264 203.105 32.2091L203.756 31.0325L203.979 29.3028L203.705 28.7622C203.435 28.8086 203.205 28.8387 202.933 28.8009C202.028 31.4542 203.369 36.3382 202.596 38.462C202.561 38.5576 202.526 38.6501 202.482 38.7422Z"/>
	<path fill="#F03838" fill-opacity="0.9254902" transform="scale(3.69394 3.69394)" d="M202.482 38.7422C202.526 38.6501 202.561 38.5576 202.596 38.462C203.369 36.3382 202.028 31.4542 202.933 28.8009C203.205 28.8387 203.435 28.8086 203.705 28.7622L203.979 29.3028L203.756 31.0325L203.105 32.2091C203.281 33.6264 203.422 35.6425 202.865 36.9858C202.985 37.6713 203.091 37.9383 202.668 38.5318C202.613 38.608 202.549 38.6768 202.482 38.7422Z"/>
	<path fill="#F03838" transform="scale(3.69394 3.69394)" d="M26.2808 37.8489C26.757 37.8466 26.8791 37.9465 27.2755 38.184L27.2544 38.6849C26.4047 40.1532 24.0333 41.4006 22.5774 42.2381C20.6317 43.3572 17.1657 45.7466 14.8299 45.1168C13.4914 44.0681 13.1313 42.9851 12.5856 41.4453C15.2026 39.271 22.7759 38.0733 26.2808 37.8489Z"/>
	<defs>
		<linearGradient id="gradient_1" gradientUnits="userSpaceOnUse" x1="195.8974" y1="27.54516" x2="197.1026" y2="27.45484">
			<stop offset="0" stop-color="#F20079" stop-opacity="0.9254902"/>
			<stop offset="1" stop-color="#F03838" stop-opacity="0.97647059"/>
		</linearGradient>
	</defs>
	<path fill="url(#gradient_1)" transform="scale(3.69394 3.69394)" d="M195.843 20.3778C196.549 20.7079 197.368 21.0855 197.854 21.7206C198.256 22.2464 198.28 22.6503 198.19 23.2742C198.611 23.7662 198.68 23.9688 198.714 24.6143C198.878 27.7358 198.382 31.0023 198.479 34.167C198.613 38.4893 199.525 42.849 199.181 47.1763C199.127 47.8479 199.05 48.2474 198.524 48.7007Q198.488 48.7311 198.452 48.7607L198.43 49.3497L197.762 49.7746C197.557 49.7109 197.382 49.5303 197.219 49.393L197.225 48.4963C197.401 47.8635 196.474 40.4308 196.505 38.6292C196.527 37.3342 197.08 34.7439 196.62 33.6478C196.569 33.5259 196.517 33.4079 196.453 33.2926C195.917 32.0436 196.229 29.5238 196.209 28.0929C196.193 26.9884 196.289 26.2497 195.474 25.4574C196.067 24.0598 196.026 21.8575 195.843 20.3778ZM198.19 23.2742L198.254 23.8394L197.98 23.3521C197.375 27.3341 197.445 31.7328 197.581 35.7585C197.668 38.3621 199.472 46.898 198.452 48.7607Q198.488 48.7311 198.524 48.7007C199.05 48.2474 199.127 47.8479 199.181 47.1763C199.525 42.849 198.613 38.4893 198.479 34.167C198.382 31.0023 198.878 27.7358 198.714 24.6143C198.68 23.9688 198.611 23.7662 198.19 23.2742Z"/>
	<path fill="#F03838" transform="scale(3.69394 3.69394)" d="M196.453 33.2926C196.853 32.2558 196.851 31.0885 196.918 29.9901C196.642 31.0891 197.705 46.3435 197.886 48.6065C197.644 48.5237 197.477 48.4209 197.225 48.4963C197.401 47.8635 196.474 40.4308 196.505 38.6292C196.527 37.3342 197.08 34.7439 196.62 33.6478C196.569 33.5259 196.517 33.4079 196.453 33.2926Z"/>
	<path fill="#F03838" fill-opacity="0.82745099" transform="scale(3.69394 3.69394)" d="M198.19 23.2742C198.611 23.7662 198.68 23.9688 198.714 24.6143C198.878 27.7358 198.382 31.0023 198.479 34.167C198.613 38.4893 199.525 42.849 199.181 47.1763C199.127 47.8479 199.05 48.2474 198.524 48.7007Q198.488 48.7311 198.452 48.7607C199.472 46.898 197.668 38.3621 197.581 35.7585C197.445 31.7328 197.375 27.3341 197.98 23.3521L198.254 23.8394L198.19 23.2742Z"/>
	<path fill="#F03838" transform="scale(3.69394 3.69394)" d="M74.6646 55.5185Q75.0845 55.4463 75.4959 55.3357C81.666 53.6817 89.0177 48.4258 94.0658 44.4911C94.7244 43.9777 96.1523 43.1671 96.5489 42.4619C96.592 42.3853 96.6333 42.3092 96.6682 42.2283C97.3217 42.3596 97.4955 42.3809 97.9763 42.8335C98.0597 44.3409 96.0398 46.5205 95.0467 47.6299C93.9848 48.8162 92.1905 50.1487 91.9052 51.7358L91.7591 52.0591C88.2969 55.0928 81.9509 56.4532 77.4824 56.8953C76.6029 56.2259 75.7009 55.8822 74.6646 55.5185Z"/>
	<path fill="#F03838" transform="scale(3.69394 3.69394)" d="M100.933 32.574C107.05 31.9603 113.922 30.7037 120.017 31.4473C120.319 31.8132 120.295 32.0059 120.248 32.4829C120.189 33.0789 119.814 33.6188 119.356 33.9873C115.357 37.2039 102.548 35.1763 101.126 36.0528L101.089 36.0753C101.023 36.1158 100.962 36.1591 100.903 36.2082L100.807 35.9694C100.13 35.6291 99.3889 35.9304 98.6516 36.0593L98.3495 35.8422C93.2003 36.248 88.4171 36.473 83.9086 39.2718C81.5165 40.7567 79.2632 42.3045 76.6083 43.3001C76.6089 43.2615 76.6098 43.2505 76.6061 43.208C76.5072 42.0879 74.9599 40.8327 74.1516 40.1713C75.3965 39.6225 76.5229 38.7647 77.7915 38.1985C81.9163 36.3575 86.3896 35.0825 90.7886 34.0741C93.2548 33.5087 96.2902 33.6207 98.5985 32.7905C99.4013 32.4239 100.035 33.0532 100.933 32.574Z"/>
	<path fill="#F03838" transform="scale(3.69394 3.69394)" d="M90.1873 26.8144C94.8263 25.4437 98.8745 22.8355 102.606 19.8316L102.589 19.4741C102.577 19.4656 102.566 19.4569 102.555 19.4486C101.755 18.8751 100.246 19.3125 99.347 19.4769C96.1734 20.0572 93.2471 20.8323 90.3027 22.1622C87.517 23.4203 84.945 25.2818 81.8615 25.7767C80.9966 25.9155 80.2026 25.9191 79.4664 25.3789C79.1932 25.1785 78.9786 24.6804 78.9287 24.3506C78.8107 23.5705 78.9469 22.9121 79.4287 22.2735C81.7243 19.2308 90.8337 17.7312 94.625 17.1877C97.8769 16.7215 104.777 16.7161 107.448 18.7556C107.882 19.087 108.185 19.5271 108.253 20.0703C108.335 20.7236 107.955 21.3511 107.561 21.8447C106.093 23.6845 101.278 27.0164 98.9486 27.2808C99.071 28.9084 100.503 30.4712 100.658 32.3028L100.933 32.574C100.035 33.0532 99.4013 32.4239 98.5985 32.7905L98.7828 32.289C98.1107 30.6641 97.4717 29.5187 95.9608 28.539C93.3252 28.5723 92.3238 28.3286 90.1873 26.8144ZM98.7828 32.289L98.5985 32.7905C99.4013 32.4239 100.035 33.0532 100.933 32.574L100.658 32.3028C100.503 30.4712 99.071 28.9084 98.9486 27.2808L98.5645 26.911L98.1655 27.023C98.1538 28.3392 98.3334 30.3053 99.1291 31.4077C99.0838 31.7878 99.0071 31.9788 98.7828 32.289Z"/>
	<path fill="#F03838" fill-opacity="0.96862745" transform="scale(3.69394 3.69394)" d="M98.7828 32.289C99.0071 31.9788 99.0838 31.7878 99.1291 31.4077C98.3334 30.3053 98.1538 28.3392 98.1655 27.023L98.5645 26.911L98.9486 27.2808C99.071 28.9084 100.503 30.4712 100.658 32.3028L100.933 32.574C100.035 33.0532 99.4013 32.4239 98.5985 32.7905L98.7828 32.289Z"/>
	<path fill="#F03838" transform="scale(3.69394 3.69394)" d="M144.382 29.1609C143.895 28.9485 143.403 28.7326 142.939 28.4742C142.311 28.1248 141.469 27.2706 141.28 26.5678C141.143 26.059 141.181 25.6346 141.454 25.1757C143.06 22.4832 147.016 24.2589 149.489 23.7671C151.786 23.3104 154.103 22.3196 156.376 21.6962C157.995 21.2524 166.431 19.5707 167.658 20.2692L167.617 20.7252C167.184 21.3332 166.794 21.7728 166.186 22.216C164.71 22.8411 162.689 23.0417 161.094 23.411C158.568 23.9956 156.104 24.6818 153.631 25.4589C154.458 26.9691 154.341 28.9784 153.87 30.5997Q153.771 30.9407 153.632 31.2674C157.86 31.2394 166.786 27.4739 170.369 29.0409C170.902 29.2739 170.96 29.4121 171.156 29.9224C170.186 32.2477 161.937 32.023 159.722 33.4311C159.436 33.613 159.188 33.7963 159.032 34.106C158.554 35.0599 158.493 36.2869 158.073 37.2976C157.551 38.5528 156.549 39.5498 156.264 40.9067C156.321 41.227 156.399 41.5776 156.598 41.8419C157.875 43.5392 161.531 43.9417 163.513 44.2014C168.108 44.8035 174.218 44.4267 178.025 41.4835C179.087 40.6617 180.176 39.278 180.355 37.9096C180.971 39.572 181.7 43.3877 181.263 45.073C180.803 46.8446 179.283 48.7515 177.707 49.6685C173.362 52.1972 167.976 48.6878 163.721 47.5622C161.741 47.0387 159.645 47.0222 157.67 46.4962C150.701 44.6412 156.65 39.1233 154.379 35.2246C154.367 35.2904 149.027 44.5165 148.568 45.1871Q147.643 46.542 146.414 47.6279C143.672 50.0772 140.006 51.7465 136.269 51.5183C135.514 51.4722 135.088 51.321 134.587 50.7579C134.581 50.2414 134.55 50.073 134.942 49.6871C135.51 49.1274 136.571 48.6755 137.277 48.305C141.014 46.3435 145.781 44.8473 148.312 41.2879C148.841 40.5435 149.966 38.9965 149.807 38.0468C148.115 37.0354 143.305 40.4223 140.674 39.8474C140.122 39.7269 139.632 39.4305 139.329 38.9471C139.039 38.4852 138.83 37.6145 138.959 37.0688C139.543 34.6039 147.751 34.3846 149.958 33.0208C150.809 32.4949 151.374 31.7288 151.599 30.7513C151.91 29.3989 151.411 27.7414 150.691 26.5974C150.673 26.6255 150.655 26.6531 150.636 26.6802C149.476 28.3077 146.263 28.8616 144.382 29.1609ZM153.632 31.2674Q153.771 30.9407 153.87 30.5997C154.341 28.9784 154.458 26.9691 153.631 25.4589L153.372 25.1125C153.178 25.2173 152.904 25.2995 152.836 25.5143C152.826 25.5472 152.817 25.5806 152.807 25.6136C152.566 26.444 153.363 27.5352 153.147 28.428C153.126 28.5162 153.104 28.6006 153.074 28.6864C152.899 28.2613 152.739 27.7343 152.426 27.3949C152.049 28.4558 151.99 30.2933 152.247 31.3882L152.422 31.4566L152.668 30.6076L152.947 31.452C153.176 31.4265 153.454 31.4286 153.632 31.2674Z"/>
	<path fill="#F03838" fill-opacity="0.97254902" transform="scale(3.69394 3.69394)" d="M153.632 31.2674C153.454 31.4286 153.176 31.4265 152.947 31.452L152.668 30.6076L152.422 31.4566L152.247 31.3882C151.99 30.2933 152.049 28.4558 152.426 27.3949C152.739 27.7343 152.899 28.2613 153.074 28.6864C153.104 28.6006 153.126 28.5162 153.147 28.428C153.363 27.5352 152.566 26.444 152.807 25.6136C152.817 25.5806 152.826 25.5472 152.836 25.5143C152.904 25.2995 153.178 25.2173 153.372 25.1125L153.631 25.4589C154.458 26.9691 154.341 28.9784 153.87 30.5997Q153.771 30.9407 153.632 31.2674Z"/>
	<path fill="#F03838" transform="scale(3.69394 3.69394)" d="M31.9339 23.1265C32.9672 22.9216 34.2397 22.7721 35.179 22.2805C38.3478 20.6223 37.3123 15.7341 39.8718 14.2246C40.7979 13.6784 42.6202 13.6961 43.6395 13.9516C44.4724 14.1603 45.2015 14.6242 45.643 15.3752C46.0613 16.0868 46.099 16.9461 45.89 17.7307C45.3205 19.8683 43.572 21.0004 41.7796 22.0332Q42.4983 22.0141 43.2172 22.0128C44.9565 22.0103 47.6855 22.0044 49.0115 23.3466C49.274 23.6123 49.2087 23.7835 49.2064 24.1358C49.04 24.3221 48.8511 24.4908 48.6334 24.6153C46.6445 25.7529 43.6388 24.9941 41.5642 24.4368C40.9209 26.0496 40.0973 27.4401 39.1365 28.8752C40.685 28.5153 42.7413 27.8714 44.2878 28.4498C44.8971 28.6777 45.4308 29.1216 45.694 29.725C46.7419 32.1278 43.3629 34.2218 42.631 36.1332C43.1565 36.6033 44.7879 36.6784 45.5122 36.8203C50.5032 37.7984 54.1623 38.1567 59.2101 38.3749C60.8263 38.4447 62.4824 37.524 63.9551 38.2747C63.5692 38.9336 63.0164 39.4698 62.6587 40.1285C61.8329 41.6492 61.2961 43.5236 60.2155 44.8745C59.5527 45.7031 58.6669 46.3171 57.5953 46.4264C55.4883 46.6414 53.4354 45.0889 51.8958 43.8219C51.4274 44.5555 50.9256 45.2246 50.366 45.8909L49.6606 46.7129C48.8819 49.8932 41.3957 51.4551 38.8375 52.7904C37.2217 53.6338 35.7271 55.0032 34.2103 56.0418L31.6697 54.4652C32.5524 52.6548 33.9548 49.594 33.6522 47.5679C33.558 46.9373 33.2432 46.3775 32.7228 46.0011C31.6438 45.2209 30.0706 45.6824 28.8575 45.8885C32.1186 42.7895 35.9162 40.6472 38.9881 37.2919C37.6083 37.2543 36.2125 37.0497 34.8392 36.9065C32.4492 38.9027 30.8842 41.319 27.9187 42.6143C28.8025 40.7457 30.2813 39.0705 31.4979 37.402C34.5549 33.209 36.3633 29.2291 37.6935 24.2116C36.0591 24.4786 34.4018 24.3913 32.7818 24.7843C31.0008 25.2164 31.3135 26.606 30.4924 27.907C30.1478 28.453 29.8463 28.4946 29.2604 28.6295C27.8822 28.4155 26.7784 27.4907 25.9045 26.4662C21.9894 29.2318 17.5769 29.8546 12.9201 29.8526C15.1636 28.4833 17.6302 27.3271 20.0954 26.4234C21.4035 25.9438 23.7385 25.5175 24.8383 24.7901C24.9995 24.6834 25.1957 24.3845 25.3309 24.2311C25.7614 22.6083 23.8496 20.7111 23.3324 19.2303C23.1034 18.5749 23.2474 18.2273 23.5364 17.6438C23.9326 17.3466 24.339 17.069 24.8139 16.915C25.8197 16.5887 26.7868 16.7 27.7216 17.1847C30.2005 18.4699 31.1455 20.63 31.9339 23.1265ZM41.4542 38.4424C39.9639 39.7678 36.6705 41.4974 36.0367 43.3608L36.0998 43.9448C36.9712 44.5041 37.7564 44.3217 38.7371 44.1077C39.8299 43.8693 40.8901 43.4945 41.9444 43.1256C43.165 42.6791 46.6012 42.1462 47.3394 41.5738C47.4145 41.5156 47.4856 41.4583 47.5539 41.3923C47.2818 40.5417 46.4012 40.1731 45.6371 39.7799C44.3214 39.103 42.9678 38.4175 41.4542 38.4424ZM37.7495 49.877C41.0231 49.624 44.7929 48.9181 47.0277 46.2835Q47.1224 46.1716 47.2077 46.0524L48.3368 43.8911C45.0611 44.0849 41.7076 44.5683 39.3959 47.1628C38.7028 47.9408 38.2276 48.9565 37.7495 49.877ZM38.303 30.8091C37.0918 31.7983 36.4518 33.4873 35.6265 34.801C36.8755 34.9544 38.1993 35.0341 39.4171 35.3498C40.3054 34.8814 41.2965 33.6709 41.5944 32.7143C41.7118 32.3374 41.627 31.934 41.5256 31.5628C41.1098 31.087 40.8623 30.7286 40.1754 30.6942C39.565 30.6636 38.9122 30.7533 38.303 30.8091ZM48.3368 43.8911L47.2077 46.0524C47.2186 46.061 47.2297 46.0694 47.2404 46.0782C47.8727 46.5952 47.53 47.4401 48.224 47.7155C48.7752 47.3144 49.1844 46.8099 49.6184 46.2914L49.6606 46.7129L50.366 45.8909C50.0809 45.414 50.8455 44.6721 50.9563 44.0565L50.6772 43.9329C50.16 44.197 49.729 44.8903 49.365 45.3408C48.8913 45.0285 49.2129 44.3624 48.9991 43.8241L48.3368 43.8911Z"/>
	<path fill="#F03838" fill-opacity="0.97254902" transform="scale(3.69394 3.69394)" d="M48.3368 43.8911L48.9991 43.8241C49.2129 44.3624 48.8913 45.0285 49.365 45.3408C49.729 44.8903 50.16 44.197 50.6772 43.9329L50.9563 44.0565C50.8455 44.6721 50.0809 45.414 50.366 45.8909L49.6606 46.7129L49.6184 46.2914C49.1844 46.8099 48.7752 47.3144 48.224 47.7155C47.53 47.4401 47.8727 46.5952 47.2404 46.0782C47.2297 46.0694 47.2186 46.061 47.2077 46.0524L48.3368 43.8911Z"/>
	<path fill="#F03838" fill-opacity="0.98823529" transform="scale(3.69394 3.69394)" d="M217.992 13.9024C219.407 13.975 220.958 14.0843 222.209 14.8133C223.086 15.3245 223.844 16.0387 224.096 17.0539C224.366 18.14 224.082 19.7986 223.508 20.7545C225.757 20.7176 228.93 20.3137 230.808 21.7785C230.065 23.7729 226.071 24.659 224.5 26.2921C223.293 27.5468 222.412 28.7895 220.866 29.6833C223.503 29.1701 226.452 28.4104 229.139 28.4286C230.268 28.4363 231.791 28.5106 232.63 29.3764C232.888 29.6421 233.058 30.0748 233.038 30.4513C232.942 32.2537 232.157 33.9794 230.855 35.1811C235.273 35.3728 239.644 35.5267 244.067 35.4971C244.178 35.8616 244.1 36.2752 243.993 36.6328C243.568 38.046 242.183 40.1785 240.843 40.8826C237.991 42.3809 233.351 40.3427 230.468 39.4568C229.672 40.5033 230.64 41.6753 229.412 42.7448C229.504 43.8591 228.598 44.0602 228.736 45.2082C230.016 45.0193 231.536 44.983 232.64 45.7697C232.85 46.2817 232.81 46.3317 232.612 46.8508C231.505 47.8039 228.705 47.2457 228.153 48.1078C227.837 48.602 227.718 49.5909 227.38 50.2064C224.527 55.4057 222.285 56.5505 216.457 56.9706C218.777 55.9573 220.806 53.9263 221.735 51.5418C222.021 50.8065 222.335 49.6878 222.007 48.929C220.058 49.0511 218.118 49.187 216.178 49.4002L216.274 49.0021C215.627 48.5084 213.967 48.9374 213.126 48.7288C212.577 48.5928 212.514 48.4863 212.241 48.0263L212.474 47.4593L212.38 47.2908C211.907 47.474 211.855 47.5546 211.366 47.3485C211.229 46.7205 211.066 46.1055 210.892 45.4874C210.688 45.7714 210.549 45.9586 210.202 46.0775C210.121 45.2072 209.978 44.7034 209.438 44.006C209.953 43.2699 210.44 42.5836 210.743 41.7313L210.474 41.5058C208.666 41.7315 206.512 40.743 204.905 41.1399C204.751 41.178 204.599 41.2145 204.449 41.2675C203.592 41.9036 203.855 44.7901 203.411 45.8495L203.044 45.9009L203.301 46.0143C202.46 45.2219 203.722 38.5674 202.865 36.9858C203.422 35.6425 203.281 33.6264 203.105 32.2091C203.972 34.0502 203.491 37.6721 204.439 39.0466L204.515 38.4935L204.997 39.7913C205.282 39.882 212.316 38.0476 213.421 37.8178C214.569 37.1581 219.847 28.9212 221.084 27.1771C221.844 26.1057 222.911 24.9154 222.673 23.5178C222.626 23.5613 222.577 23.6042 222.526 23.6432C220.153 25.4509 216.211 27.9734 213.216 28.2303C212.099 28.3262 210.81 28.069 209.694 27.935C208.597 28.8329 206.863 29.3984 205.523 29.8261C205.808 29.5094 206.068 29.1458 206.235 28.7527C207.069 26.7849 208.572 22.4188 207.735 20.3399C208.475 20.5385 209.244 20.7285 209.95 21.0287C210.887 21.4269 211.596 21.9893 211.983 22.9514C212.495 24.2227 211.695 25.4532 211.192 26.6305L211.344 26.9403C211.484 26.9494 211.624 26.9521 211.765 26.9404C212.691 26.8634 213.473 25.9983 214.027 25.3252C216.268 22.6024 216.528 19.7721 217.351 16.5214C217.569 15.661 218.078 14.8001 217.992 13.9024ZM214.964 39.7911L214.522 39.6035C212.649 40.8779 212.858 44.2028 210.892 45.4874C211.066 46.1055 211.229 46.7205 211.366 47.3485C211.855 47.5546 211.907 47.474 212.38 47.2908L212.474 47.4593Q212.595 47.4751 212.716 47.4835C213.988 47.5721 215.299 47.3313 216.284 46.4688C216.893 45.9354 217.673 44.8661 217.724 44.0392C218.444 43.4873 218.782 42.8678 218.945 41.9945C219.361 41.377 219.451 41.2794 219.427 40.541C219.717 40.2381 219.827 39.9639 219.956 39.5723L219.647 39.2155C218.223 39.0339 216.426 39.6617 214.964 39.7911ZM222.879 38.747C223.085 39.8667 222.216 42.2593 221.548 43.169C221.427 43.334 221.258 43.4521 221.075 43.5394C220.885 44.6636 220.176 45.2089 219.657 46.2029C220.749 46.2763 222.066 46.3811 223.091 45.9253C224.386 45.3491 225.667 44.0195 226.168 42.6899C226.538 41.7072 227.077 39.8122 226.633 38.8353C225.459 38.6305 224.078 38.7566 222.879 38.747ZM226.411 30.1245L226.408 30.1717C226.301 31.6186 224.824 32.8224 224.723 34.2153C224.699 34.5459 224.81 34.6579 224.979 34.9277C225.657 35.2485 226.341 35.0885 227.052 34.9842C228.052 34.6848 228.574 34.3102 229.076 33.37C229.417 32.732 229.615 32.001 229.396 31.2847Q229.347 31.1193 229.266 30.9669Q229.185 30.8146 229.075 30.6815Q228.966 30.5484 228.831 30.44Q228.697 30.3315 228.544 30.2521C227.884 29.9091 227.117 29.975 226.411 30.1245ZM222.402 31.8745C221.342 32.4633 220.211 32.9578 219.014 33.1936C218.888 34.1808 218.13 34.8873 218.366 35.8237L218.743 36.0409C220.225 36.0572 221.022 36.1102 222.127 35.029C222.9 34.2724 223.265 33.5076 223.438 32.4493L223.259 31.9919L222.402 31.8745ZM219.427 40.541C219.451 41.2794 219.361 41.377 218.945 41.9945C219.603 42.3947 220.433 43.3882 221.075 43.5394C221.258 43.4521 221.427 43.334 221.548 43.169C222.216 42.2593 223.085 39.8667 222.879 38.747C222.483 38.7067 222.294 38.6231 221.966 38.8911C221.199 39.5186 220.797 40.7766 219.893 41.453C219.731 41.1545 219.553 40.8567 219.427 40.541ZM218.945 41.9945C218.782 42.8678 218.444 43.4873 217.724 44.0392L218.45 44.1666C218.908 44.9281 218.459 46.1071 219.087 46.5991C219.288 46.5034 219.559 46.415 219.657 46.2029C220.176 45.2089 220.885 44.6636 221.075 43.5394C220.433 43.3882 219.603 42.3947 218.945 41.9945ZM228.255 41.5368C228.351 42.7185 227.129 44.5226 227.314 45.09L227.979 45.4909L227.492 45.4698C227.939 45.4301 228.358 45.4614 228.736 45.2082C228.598 44.0602 229.504 43.8591 229.412 42.7448C229.427 42.3042 229.504 41.8346 229.236 41.4565L228.255 41.5368ZM228.255 41.5368L229.236 41.4565C229.504 41.8346 229.427 42.3042 229.412 42.7448C230.64 41.6753 229.672 40.5033 230.468 39.4568L229.706 39.1002C228.956 39.6723 229.414 40.6076 228.255 41.5368Z"/>
	<path fill="#F03838" fill-opacity="0.95294118" transform="scale(3.69394 3.69394)" d="M228.255 41.5368C229.414 40.6076 228.956 39.6723 229.706 39.1002L230.468 39.4568C229.672 40.5033 230.64 41.6753 229.412 42.7448C229.427 42.3042 229.504 41.8346 229.236 41.4565L228.255 41.5368Z"/>
	<path fill="#F03838" fill-opacity="0.92941177" transform="scale(3.69394 3.69394)" d="M228.255 41.5368L229.236 41.4565C229.504 41.8346 229.427 42.3042 229.412 42.7448C229.504 43.8591 228.598 44.0602 228.736 45.2082C228.358 45.4614 227.939 45.4301 227.492 45.4698L227.979 45.4909L227.314 45.09C227.129 44.5226 228.351 42.7185 228.255 41.5368Z"/>
	<path fill="#F03838" fill-opacity="0.96470588" transform="scale(3.69394 3.69394)" d="M218.945 41.9945C219.603 42.3947 220.433 43.3882 221.075 43.5394C220.885 44.6636 220.176 45.2089 219.657 46.2029C219.559 46.415 219.288 46.5034 219.087 46.5991C218.459 46.1071 218.908 44.9281 218.45 44.1666L217.724 44.0392C218.444 43.4873 218.782 42.8678 218.945 41.9945Z"/>
	<path fill="#F03838" fill-opacity="0.95294118" transform="scale(3.69394 3.69394)" d="M219.427 40.541C219.553 40.8567 219.731 41.1545 219.893 41.453C220.797 40.7766 221.199 39.5186 221.966 38.8911C222.294 38.6231 222.483 38.7067 222.879 38.747C223.085 39.8667 222.216 42.2593 221.548 43.169C221.427 43.334 221.258 43.4521 221.075 43.5394C220.433 43.3882 219.603 42.3947 218.945 41.9945C219.361 41.377 219.451 41.2794 219.427 40.541Z"/>
	<path fill="#F03838" fill-opacity="0.9254902" transform="scale(3.69394 3.69394)" d="M210.892 45.4874C212.858 44.2028 212.649 40.8779 214.522 39.6035L214.964 39.7911C214.704 41.964 212.179 45.7177 212.38 47.2908C211.907 47.474 211.855 47.5546 211.366 47.3485C211.229 46.7205 211.066 46.1055 210.892 45.4874Z"/>
</svg>
